<svg xml:space="preserve" viewBox="0 0 256 256"><path fill="#3ca370" stroke="#141436" stroke-width="29.8" d="m100 210.6 26.2-14.5-8-2.7-8.1-2.8-3.5 2.2-3.6 2.1-9.7-18.8-9.8-18.8v-5.7l21.3-9 21.2-9-21.2-12-21.2-12V95l-.1-14.6-10.4 4-10.3 4-6 15.5-5.8 15.5H30.5l-4.1-10.8-4.2-10.8 11-8 10.9-8V70.1l16.7-19.4 16.7-19.5L127 31l49.4-.3 7.8 13.2 7.7 13.1 3.6 13 3.5 13 16.2.1 16.1.1-2 19.7-2.2 19.6-2.7 2.7-2.6 2.6-10.7-9-10.7-8.8-7.5 10.2-7.5 10.2-7.6-2.6-7.6-2.6-4.3 7-4.3 6.9 11.9.7 11.9.7 16-1.4 16.2-1.3-6.4 8.8-6.3 8.9.2 13.1.3 13.1L216 180l10.9-1.8 3.7 6 3.7 6-10.3 8.6-10.3 8.5-12.5-7.8-12.6-7.8H169v12l8.2 3 8.2 2.9-4.3 4.6-4.3 4.7-51.5 3.1-51.6 3.1z"/><g stroke-width="6.4" shape-rendering="crispEdges"><path stroke="#4da6ff" d="M105.4 33h51m-82.9 6.4h108.3M73.5 45.7h31.9m6.3 0h70.1m-121 6.4h31.8m25.5 0h38.2m19.1 0h6.4m-121 6.4h25.5m25.4 0h25.5m-82.8 6.4h25.5m25.5 0H118m-70 6.3h25.4m31.9 0h6.3M48 77.6h19.1m-19 6.4h12.7m-25.5 6.3h19.1m-25.5 6.4h31.9m-31.9 6.4h31.9m-31.9 6.4h31.9m-25.5 6.3h19.1m51 25.5H118m-6.4 6.4h12.8m-12.8 6.3H131m-19.2 6.4h31.9m-25.5 6.4h25.5m-25.5 6.4h19.1m-19 6.3H131"/><path stroke="#465ed4" d="M105.4 45.7h6.3m-19 6.4H118m-31.8 6.4h25.4M80 64.9h25.5m12.7 0h6.4m-51 6.3h31.9m6.3 0h6.4m-51 6.4h51M60.8 84h19m6.5 0h25.4m-57.3 6.3h12.7m19.2 0h19m-19 6.4h19m-19 6.4h19m-19 6.4h19m-6.3 6.3h6.4m12.7 25.5H131m-6.4 6.4h38.2M131 154h51m6.3 0H201m-57.3 6.4h51m-89.2 6.4H118m25.5 0h12.7m12.8 0h6.3m19.2 0h6.3M99 173.2h19.1m19.1 0H150m19 0h6.4M99 179.5h19.1m12.8 0h19m19.2 0h12.7M99 186h6.4m6.3 0H150m19 0h19.2"/><path stroke="#8fde5d" d="M156.3 52.1h19.1m6.4 0h6.4m-51 6.4H150m19 0h25.6m-70.1 6.4h31.8m25.5 0h12.8M118 71.2h13m6.3 0H150m38.2 0h6.4M118 77.6h13m6.3 0H150m38.2 0h6.4M111.7 84h12.8m6.4 0h19m38.3 0h12.7m6.4 0h19.1m-121 6.3h25.5m57.3 0h25.5m6.3 0h12.8m-127.4 6.4h19m57.4 0h25.5m12.7 0h12.8m-127.4 6.4h19m38.3 0h63.7m-121 6.4h19m38.3 0h63.7m-121 6.3h19m38.3 0h31.9m12.7 0h19.1m-114.7 6.4h6.4m38.2 0h31.9m25.5 0h12.7m-95.5 6.4H169m12.7 0h6.4m-63.7 6.3h38.2m-31.8 6.4h51m6.3 0h25.5m-121 6.4h19m51 0h44.6m-121 6.3h25.4m70.1 0h6.4m-102 6.4h25.5m82.9 0h12.7m-114.7 6.4h12.8m51 0H169m6.3 0h19.2m6.3 0h6.4m-57.3 6.4h19m6.4 0H201m-51 6.3h19.2m12.7 0h25.5m6.4 0h12.7M150 186h19m19.2 0h44.6m-82.8 6.4h19m25.6 0h31.8m-108.3 6.3h6.4m25.5 0h19m32 0h19M105.4 205h19m25.6 0h31.8m-89.2 6.4h25.5m38.2 0h25.5m-102 6.4h32"/><path stroke="#3ca370" d="M150 58.5h19m-38 12.7h6.3m25.5 0h12.7M131 77.6h6.3m25.5 0h12.7m-51 6.4h6.5m31.8 0h12.7m38.3 6.3h6.3m-12.7 6.4H220m-82.8 6.4H150m-12.8 6.4H150m-12.8 6.3H150m-25.5 76.5H150m-25.5 6.3H150m-25.5 6.4H150m-31.9 6.4h38.2m-44.6 6.4H150"/><path stroke="#fff" d="M156.3 64.9h25.5M150 71.2h12.7m12.7 0h12.8M150 77.6h12.7m12.7 0h12.8M150 84h12.7m12.7 0h12.8m-57.3 6.3h57.3m-63.7 6.4h57.3m-57.3 6.4h12.7m12.8 0h12.7m-38.2 6.4h12.7m12.8 0h12.7m-38.2 6.3h12.7m12.8 0h12.7m-44.6 6.4h38.2m-38.2 6.4H131"/></g></svg>