<?xml version="1.0" encoding="UTF-8" standalone="no"?>
<svg
   viewBox="0 0 256 256"
   xml:space="preserve"
   version="1.1"
   id="svg2"
   sodipodi:docname="io.itch.darltrash.sleepyhead.svg"
   inkscape:version="1.3.2 (091e20ef0f, 2023-11-25)"
   xmlns:inkscape="http://www.inkscape.org/namespaces/inkscape"
   xmlns:sodipodi="http://sodipodi.sourceforge.net/DTD/sodipodi-0.dtd"
   xmlns="http://www.w3.org/2000/svg"
   xmlns:svg="http://www.w3.org/2000/svg"><defs
     id="defs2" /><sodipodi:namedview
     id="namedview2"
     pagecolor="#ffffff"
     bordercolor="#000000"
     borderopacity="0.25"
     inkscape:showpageshadow="2"
     inkscape:pageopacity="0.0"
     inkscape:pagecheckerboard="0"
     inkscape:deskcolor="#d1d1d1"
     showguides="false"
     inkscape:zoom="2.2027095"
     inkscape:cx="177.96264"
     inkscape:cy="30.644078"
     inkscape:window-width="1920"
     inkscape:window-height="1011"
     inkscape:window-x="0"
     inkscape:window-y="0"
     inkscape:window-maximized="1"
     inkscape:current-layer="svg2" /><path
     d="m 99.919494,210.57131 26.268716,-14.49073 -8.04482,-2.72472 -8.04481,-2.72592 -3.53915,2.13546 -3.54034,2.13427 -9.758696,-18.81076 -9.758696,-18.81077 v -5.70095 l 21.264802,-8.94068 21.26721,-8.94188 -21.22529,-12.08459 -21.224082,-12.08459 -0.0503,-14.570974 -0.0491,-14.570974 -10.353943,3.972705 -10.353943,3.973901 -5.902166,15.521932 -5.902167,15.52313 H 30.535502 L 26.39153,108.57449 22.24636,97.773814 33.16441,89.79008 l 10.91805,-7.982536 0.0072,-5.844678 0.0072,-5.842283 16.713623,-19.435949 16.71482,-19.434752 49.409087,-0.253908 49.40789,-0.253908 7.75139,13.134955 7.75138,13.133758 3.54753,13.000815 3.54872,13.000816 16.15311,0.108989 16.15431,0.108988 -2.14026,19.652733 -2.13905,19.65392 -2.62651,2.62652 -2.62652,2.62771 -10.72043,-8.89757 -10.72043,-8.89756 -7.49748,10.18028 -7.49987,10.18028 -7.60646,-2.56663 -7.60767,-2.56543 -4.27332,6.91301 -4.27332,6.9142 11.88098,0.72819 11.88099,0.72939 16.11478,-1.37374 16.11718,-1.37374 -6.36926,8.85445 -6.36926,8.85445 0.26109,13.13495 0.2575,13.13496 10.8414,-1.81569 10.8426,-1.81568 3.70682,5.99678 3.70562,5.99799 -10.31203,8.55742 -10.31202,8.55862 -12.51216,-7.81366 -12.51216,-7.81487 h -19.88029 v 12.04028 l 8.20889,2.93192 8.2089,2.93192 -4.28889,4.64101 -4.29009,4.64101 -51.53257,3.13074 -51.532576,3.13193 z"
     fill="#3ca370"
     stroke="#141436"
     stroke-width="29.7851"
     id="path1" /><g
     style="shape-rendering:crispEdges"
     id="g7313"
     transform="matrix(6.3705468,0,0,6.3705468,28.921612,26.636558)"><path
       stroke="#4da6ff"
       d="m 12,1 h 8 M 7,2 H 24 M 7,3 h 5 m 1,0 H 24 M 5,4 h 5 m 4,0 h 6 m 3,0 h 1 M 5,5 h 4 m 4,0 h 4 M 4,6 h 4 m 4,0 h 2 M 3,7 h 4 m 5,0 h 1 M 3,8 H 6 M 3,9 h 2 m -4,1 h 3 m -4,1 h 5 m -5,1 h 5 m -5,1 h 5 m -4,1 h 3 m 8,4 h 2 m -1,1 h 2 m -2,1 h 3 m -3,1 h 5 m -4,1 h 4 m -4,1 h 3 m -3,1 h 2"
       id="path1-8" /><path
       stroke="#465ed4"
       d="m 12,3 h 1 m -3,1 h 4 M 9,5 h 4 M 8,6 h 4 m 2,0 h 1 M 7,7 h 5 m 1,0 h 1 M 6,8 h 8 M 5,9 h 3 m 1,0 h 4 m -9,1 h 2 m 3,0 h 3 m -3,1 h 3 m -3,1 h 3 m -3,1 h 3 m -1,1 h 1 m 2,4 h 2 m -1,1 h 6 m -5,1 h 8 m 1,0 h 2 m -9,1 h 8 m -14,1 h 2 m 4,0 h 2 m 2,0 h 1 m 3,0 h 1 m -16,1 h 3 m 3,0 h 2 m 3,0 h 1 m -12,1 h 3 m 2,0 h 3 m 3,0 h 2 m -13,1 h 1 m 1,0 h 6 m 3,0 h 3"
       id="path2-8" /><path
       stroke="#8fde5d"
       d="m 20,4 h 3 m 1,0 h 1 m -8,1 h 2 m 3,0 h 4 M 15,6 h 5 m 4,0 h 2 M 14,7 h 2 m 1,0 h 2 m 6,0 h 1 M 14,8 h 2 m 1,0 h 2 m 6,0 h 1 M 13,9 h 2 m 1,0 h 3 m 6,0 h 2 m 1,0 h 3 m -19,1 h 4 m 9,0 h 4 m 1,0 h 2 m -20,1 h 3 m 9,0 h 4 m 2,0 h 2 m -20,1 h 3 m 6,0 h 10 m -19,1 h 3 m 6,0 h 10 m -19,1 h 3 m 6,0 h 5 m 2,0 h 3 m -18,1 h 1 m 6,0 h 5 m 4,0 h 2 m -15,1 h 6 m 2,0 h 1 m -10,1 h 6 m -5,1 h 8 m 1,0 h 4 m -19,1 h 3 m 8,0 h 7 M 9,20 h 4 m 11,0 h 1 M 9,21 h 4 m 13,0 h 2 m -18,1 h 2 m 8,0 h 2 m 1,0 h 3 m 1,0 h 1 m -9,1 h 3 m 1,0 h 4 m -8,1 h 3 m 2,0 h 4 m 1,0 h 2 m -12,1 h 3 m 3,0 h 7 m -13,1 h 3 m 4,0 h 5 m -17,1 h 1 m 4,0 h 3 m 5,0 h 3 m -18,1 h 3 m 4,0 h 5 m -14,1 h 4 m 6,0 h 4 M 8,30 h 5"
       id="path3" /><path
       stroke="#3ca370"
       d="m 19,5 h 3 m -6,2 h 1 m 4,0 h 2 m -7,1 h 1 m 4,0 h 2 m -8,1 h 1 m 5,0 h 2 m 6,1 h 1 m -2,1 h 2 m -13,1 h 2 m -2,1 h 2 m -2,1 h 2 m -4,12 h 4 m -4,1 h 4 m -4,1 h 4 m -5,1 h 6 m -7,1 h 6"
       id="path4" /><path
       stroke="#ffffff"
       d="m 20,6 h 4 m -5,1 h 2 m 2,0 h 2 m -6,1 h 2 m 2,0 h 2 m -6,1 h 2 m 2,0 h 2 m -9,1 h 9 m -10,1 h 9 m -9,1 h 2 m 2,0 h 2 m -6,1 h 2 m 2,0 h 2 m -6,1 h 2 m 2,0 h 2 m -7,1 h 6 m -6,1 h 2"
       id="path5" /></g></svg>
